<?xml version="1.0" standalone="no"?>
<!DOCTYPE svg PUBLIC "-//W3C//DTD SVG 1.1//EN" "http://www.w3.org/Graphics/SVG/1.1/DTD/svg11.dtd" >
<svg xmlns="http://www.w3.org/2000/svg">
<metadata>Generated by IcoMoon</metadata>
<defs>
<font id="xerofit-icons" horiz-adv-x="512">
<font-face units-per-em="512" ascent="480" descent="-32" />
<missing-glyph horiz-adv-x="512" />
<glyph unicode="&#x20;" d="" horiz-adv-x="256" />
<glyph unicode="&#xe600;" d="M348.16 460.8v-61.44h-184.32v61.44h184.32zM368.64 481.28h-225.28v-102.4h225.28v102.4zM389.12 440.32v-20.48h81.92v-430.080h-430.080v430.080h81.92v20.48h-102.4v-471.040h471.040v471.040h-102.4zM389.12 235.52h-266.24v20.48h266.24v-20.48zM389.12 133.12h-266.24v-20.48h266.24v20.48z" />
<glyph unicode="&#xe601;" d="M143.36 481.28v-102.4h225.28v102.4h-225.28zM348.16 399.36h-184.32v61.44h184.32v-61.44zM389.12 440.32v-81.92h-266.24v81.92h-102.4v-471.040h471.040v471.040h-102.4zM389.12 112.64h-266.24v20.48h266.24v-20.48zM389.12 215.040h-266.24v20.48h266.24v-20.48z" />
<glyph unicode="&#xe602;" d="M0 440.32h512v-430.080h-512v430.080zM112.64 215.040v-184.32h286.72v184.32h-286.72zM112.64 419.84v-184.32h286.72v184.32h-286.72zM419.84 419.84v-61.44h71.68v61.44h-71.68zM20.48 419.84v-61.44h71.68v61.44h-71.68zM20.48 337.92v-61.44h71.68v61.44h-71.68zM419.84 337.92v-61.44h71.68v61.44h-71.68zM20.48 256v-61.44h71.68v61.44h-71.68zM419.84 256v-61.44h71.68v61.44h-71.68zM20.48 92.16v-61.44h71.68v61.44h-71.68zM419.84 92.16v-61.44h71.68v61.44h-71.68zM20.48 174.080v-61.44h71.68v61.44h-71.68zM419.84 174.080v-61.44h71.68v61.44h-71.68z" />
<glyph unicode="&#xe603;" d="M0 440.32h512v-430.080h-512v430.080zM419.84 419.84v-61.44h71.68v61.44h-71.68zM20.48 419.84v-61.44h71.68v61.44h-71.68zM20.48 337.92v-61.44h71.68v61.44h-71.68zM419.84 337.92v-61.44h71.68v61.44h-71.68zM20.48 256v-61.44h71.68v61.44h-71.68zM419.84 256v-61.44h71.68v61.44h-71.68zM20.48 92.16v-61.44h71.68v61.44h-71.68zM419.84 92.16v-61.44h71.68v61.44h-71.68zM20.48 174.080v-61.44h71.68v61.44h-71.68zM419.84 174.080v-61.44h71.68v61.44h-71.68zM112.64 235.52v-20.48h286.72v20.48h-286.72z" />
<glyph unicode="&#xe604;" d="M129.095 368.886c-3.912-68.198 13.22-131.072 54.754-186.276 10.24-13.619 11.786-19.61 1.7-33.301-51.641-70.195-185.549-41.789-185.549-149.309 0-18.053 1.925-30.72 20.48-30.72h471.040c18.555 0 20.48 12.667 20.48 30.72 0 107.52-133.909 79.114-185.559 149.31-10.076 13.701-8.54 19.692 1.7 33.3 41.543 55.214 58.665 118.077 54.753 186.276-3.195 55.879-33.454 112.394-126.894 112.394s-123.699-56.514-126.904-112.394zM362.447 367.716c3.724-64.923-12.922-122.622-50.671-172.793-15.923-21.163-17.214-36.833-1.834-57.747 19.855-26.984 44.902-40.708 92.502-57.414 2.524-0.886 5.024-1.756 9.967-3.473 61.837-21.514 79.108-35.583 79.108-76.288 0-7.795-0.502-11.77-0.999-12.733 0.425 0.824 1.374 1.81 2.481 2.394 0.347 0.183-0.054 0.099-1.483 0.099h-471.040c-1.428 0-1.83 0.084-1.483-0.099 1.108-0.584 2.056-1.57 2.482-2.394-0.497 0.962-0.999 4.938-0.999 12.733 0 40.704 17.27 54.774 79.106 76.288 4.939 1.716 7.437 2.586 9.959 3.471 47.605 16.709 72.65 30.432 92.5 57.414 15.393 20.894 14.098 36.563-1.827 57.745-37.748 50.173-54.399 107.885-50.676 172.796 3.347 58.361 35.658 93.087 106.458 93.087s103.111-34.728 106.448-93.084z" />
<glyph unicode="&#xe605;" d="M326.441 149.309c-10.076 13.701-8.54 19.692 1.7 33.301 41.543 55.214 58.665 118.077 54.754 186.276-3.195 55.88-33.454 112.394-126.894 112.394s-123.699-56.514-126.904-112.394c-3.912-68.198 13.22-131.072 54.754-186.276 10.24-13.619 11.786-19.61 1.7-33.301-51.641-70.195-185.549-41.789-185.549-149.309 0-18.053 1.925-30.72 20.48-30.72h471.040c18.555 0 20.48 12.667 20.48 30.72 0 107.52-133.909 79.114-185.559 149.31v0z" />
<glyph unicode="&#xe606;" d="M0 481.28h512v-512h-512v512zM20.48 460.8v-471.040h471.040v471.040h-471.040zM20.48 28.194l68.349 76.254 62.168-41.632 107.564 147.763 96.954-76.909 136.006 197.594v35.84l-140.338-203.921-97.215 76.749-108.047-149.322-60.582 40.591-64.884-72.371 0.026-30.636z" />
<glyph unicode="&#xe607;" d="M0 481.28h512v-512h-512v512zM20.48 28.194l68.349 76.254 62.168-41.632 107.564 147.763 96.954-76.909 156.486 227.291v35.839l-20.48-29.696-140.338-203.921-97.215 76.749-108.047-149.322-60.582 40.591-64.884-72.371-20.454-22.99v-30.72l20.48 23.075z" />
<glyph unicode="&#xe608;" d="M256 481.28c-141.375 0-256-114.605-256-256s114.625-255.98 256-256c141.395 0.020 256 114.625 256 256s-114.625 256-256 256v0zM255.98 107.954c-64.686 0-117.306 52.64-117.306 117.326s52.641 117.326 117.326 117.326h0.020c64.685 0 117.306-52.64 117.306-117.326s-52.641-117.326-117.346-117.326v0zM383.95 278.761l80.591 53.881c16.647-32.192 26.11-68.687 26.11-107.362 0-38.195-9.224-74.229-25.47-106.141l-80.731 54.001c6.543 16.106 10.224 33.673 10.224 52.141 0 18.968-3.822 37.014-10.704 53.481h-0.020zM453.877 351.169l-79.831-53.381c-11.604 18.847-27.551 34.673-46.518 46.118l53.401 79.851c29.332-18.527 54.261-43.357 72.928-72.608l0.020 0.020zM362.361 434.361l-53.981-80.712c-16.166 6.603-33.813 10.304-52.361 10.304h-0.020c-18.547 0-36.194-3.702-52.361-10.304l-53.981 80.712c31.953 16.327 68.066 25.59 106.341 25.59s74.409-9.264 106.362-25.59v0zM131.071 423.798l53.421-79.871c-19.007-11.485-34.974-27.351-46.598-46.238l-79.851 53.401c18.688 29.291 43.657 54.161 73.029 72.708v0zM47.398 332.542l80.611-53.901c-6.862-16.447-10.664-34.453-10.664-53.361 0-18.407 3.662-35.954 10.184-52.001l-80.751-54.021c-16.206 31.872-25.41 67.886-25.41 106.021 0 38.635 9.444 75.090 26.070 107.262h-0.040zM57.303 100.652l79.871 53.401c11.524-19.188 27.551-35.334 46.638-47.019l-53.401-79.831c-29.471 18.748-54.501 43.877-73.109 73.448v0zM148.958 16.558l53.921 80.632c16.367-6.803 34.273-10.584 53.1-10.584h0.020c18.828 0 36.775 3.782 53.141 10.584l53.921-80.632c-32.132-16.546-68.507-25.95-107.062-25.95s-74.93 9.404-107.042 25.95v0zM381.609 27.222l-53.401 79.851c19.048 11.664 35.034 27.751 46.558 46.899l79.871-53.421c-18.608-29.512-43.597-54.601-73.029-73.329v0z" />
<glyph unicode="&#xe609;" d="M256 481.28c-141.375 0-256-114.605-256-256s114.625-255.98 256-256c141.395 0.020 256 114.625 256 256s-114.625 256-256 256v0zM138.674 225.28c0 64.686 52.641 117.326 117.326 117.326 64.706 0 117.326-52.64 117.326-117.326s-52.64-117.326-117.346-117.326c-64.685 0-117.306 52.64-117.306 117.326zM453.877 351.169l-79.831-53.381c-11.604 18.847-27.551 34.673-46.518 46.118l53.401 79.851c29.332-18.527 54.261-43.357 72.928-72.608l0.020 0.020zM131.071 423.798l53.421-79.871c-19.007-11.485-34.974-27.351-46.598-46.238l-79.851 53.401c18.688 29.291 43.657 54.161 73.029 72.708v0zM57.303 100.652l79.871 53.401c11.524-19.188 27.551-35.334 46.638-47.019l-53.401-79.831c-29.471 18.748-54.501 43.877-73.109 73.448v0zM381.609 27.222l-53.401 79.851c19.048 11.664 35.034 27.751 46.558 46.899l79.871-53.421c-18.608-29.512-43.597-54.601-73.029-73.329v0z" />
<glyph unicode="&#xe60a;" d="M446.958 381.24l-17.346-17.308c38.428-41.907 61.907-97.766 61.907-159.132 0-130.083-105.437-235.52-235.52-235.52-128.167 0-232.408 102.353-235.452 229.787-0.046 1.906-0.069 3.817-0.069 5.733 0 124.92 97.261 227.050 220.166 234.967v41.513h30.72v-41.513c55.281-3.577 105.375-26.172 143.765-61.366l17.333 17.333-17.555 17.555 21.721 21.721 49.602-49.602-21.721-21.722-17.555 17.555zM256-10.24c118.764 0 215.040 96.277 215.040 215.040s-96.276 215.040-215.040 215.040c-118.763 0-215.040-96.276-215.040-215.040s96.276-215.040 215.040-215.040zM266.264 175.936v-42.841h-20.48v42.841c-11.899 4.241-20.48 15.477-20.48 28.839s8.581 24.598 20.48 28.839v135.001h20.48v-135.001c11.899-4.241 20.48-15.477 20.48-28.839s-8.581-24.598-20.48-28.839v0z" />
<glyph unicode="&#xe60b;" d="M446.958 381.24l17.555-17.555 21.721 21.721-49.602 49.602-21.721-21.721 17.555-17.555-17.333-17.333c-38.391 35.195-88.485 57.789-143.765 61.366v41.513h-30.72v-41.513c-122.904-7.916-220.166-110.046-220.166-234.967 0-1.917 0.023-3.827 0.069-5.733 3.044-127.434 107.284-229.787 235.452-229.787 130.083 0 235.52 105.437 235.52 235.52 0 61.366-23.48 117.226-61.907 159.132l17.346 17.308zM266.264 175.936v-42.841h-20.48v42.841c-11.899 4.241-20.48 15.477-20.48 28.839s8.581 24.598 20.48 28.839v135.001h20.48v-135.001c11.899-4.241 20.48-15.477 20.48-28.839s-8.581-24.598-20.48-28.839v0z" />
<glyph unicode="&#xe60c;" d="M256.005 452.608l-57.737-176.226h-188.029l152.374-108.402-58.502-176.172 151.894 109.292 151.882-109.292-58.502 176.172 152.374 108.402h-188.039l-57.716 176.226zM298.637 256.121l141.684-0.034-115.382-79.976 43.702-130.544-112.875 80.983-112.404-81.076 43.22 130.638-114.9 80.010h141.188l42.904 130.951 42.865-130.951z" />
<glyph unicode="&#xe60d;" d="M256.005 452.608l57.716-176.226h188.039l-152.374-108.402 58.502-176.172-151.882 109.292-151.893-109.292 58.502 176.172-152.374 108.402h188.029l57.737 176.226z" />
<glyph unicode="&#xe60e;" d="M204.8 426.742c-19.559-5.038-37.939-12.862-54.784-23.081l-38.84 38.841-72.397-72.397 39.659-39.68c-9.564-16.64-16.804-34.765-21.401-53.944h-57.037v-102.4h58.778c5.059-18.299 12.585-35.543 22.221-51.405l-42.219-42.219 72.397-72.397 43.038 43.038c15.678-9.001 32.655-15.923 50.576-20.521v-61.297h102.4v61.297c17.92 4.598 34.898 11.52 50.575 20.521l43.038-43.038 72.397 72.397-42.219 42.219c9.636 15.862 17.162 33.096 22.221 51.405h58.798v102.4h-57.037c-4.598 19.18-11.837 37.305-21.401 53.945l39.659 39.68-72.397 72.397-38.841-38.841c-16.845 10.22-35.216 18.043-54.774 23.081v54.538h-102.41v-54.538zM286.73 460.8v-49.932l15.372-3.959c17.423-4.488 33.956-11.474 49.26-20.758l13.74-8.336 35.723 35.723 43.433-43.433-36.265-36.292 7.813-13.594c8.647-15.044 15.128-31.353 19.242-48.513l3.765-15.706h52.707v-61.44h-53.907l-4.151-15.026c-4.502-16.297-11.224-31.807-19.983-46.226l-8.349-13.744 39.109-39.109-43.433-43.433-39.642 39.641-13.594-7.805c-14.149-8.124-29.418-14.327-45.468-18.445l-15.39-3.948v-56.706h-61.44v56.706l-15.391 3.949c-16.050 4.118-31.319 10.321-45.468 18.444l-13.595 7.805-39.642-39.642-43.434 43.433 39.109 39.109-8.349 13.743c-8.754 14.409-15.479 29.93-19.984 46.229l-4.153 15.023h-53.884v61.44h52.707l3.765 15.706c4.114 17.16 10.595 33.469 19.242 48.513l7.814 13.593-36.262 36.288 43.43 43.438 35.723-35.723 13.74 8.336c15.297 9.281 31.84 16.268 49.27 20.758l15.371 3.96v49.931h61.45zM163.84 225.28c0 50.795 41.365 92.16 92.16 92.16s92.16-41.365 92.16-92.16c0-50.795-41.365-92.16-92.16-92.16s-92.16 41.365-92.16 92.16zM368.64 225.28c0 62.105-50.534 112.64-112.64 112.64s-112.64-50.534-112.64-112.64c0-62.106 50.535-112.64 112.64-112.64s112.64 50.534 112.64 112.64z" />
<glyph unicode="&#xe60f;" d="M307.2 481.28v-54.538c19.558-5.038 37.939-12.862 54.784-23.081l38.841 38.841 72.397-72.397-39.659-39.68c9.564-16.64 16.804-34.765 21.401-53.944h57.037v-102.4h-58.778c-5.058-18.299-12.585-35.543-22.221-51.405l42.219-42.219-72.397-72.397-43.038 43.038c-15.678-9.001-32.656-15.923-50.575-20.521v-61.297h-102.41v61.297c-17.92 4.598-34.898 11.52-50.576 20.521l-43.038-43.038-72.397 72.397 42.219 42.219c-9.636 15.862-17.162 33.096-22.221 51.405h-58.788v102.4h57.037c4.598 19.18 11.837 37.305 21.401 53.945l-39.66 39.68 72.397 72.397 38.84-38.841c16.845 10.22 35.215 18.043 54.784 23.081v54.538h102.4zM256 317.44c-50.903 0-92.16-41.257-92.16-92.16s41.257-92.16 92.16-92.16c50.903 0 92.16 41.257 92.16 92.16s-41.257 92.16-92.16 92.16v0z" />
<glyph unicode="&#xe610;" d="M389.12 286.72c0 107.452-87.108 194.56-194.56 194.56s-194.56-87.107-194.56-194.56c0-107.452 87.108-194.56 194.56-194.56s194.56 87.108 194.56 194.56zM20.48 286.833c0 96.080 77.888 173.967 173.967 173.967s173.967-77.887 173.967-173.967c0-96.079-77.887-173.967-173.967-173.967s-173.967 77.888-173.967 173.967zM316.714 135.043l165.993-165.993 29.523 29.523-165.974 165.974c0 0-10.624-11.917-14.136-15.429s-15.406-14.076-15.406-14.076z" />
<glyph unicode="&#xe611;" d="M389.12 286.72c0 107.452-87.108 194.56-194.56 194.56s-194.56-87.107-194.56-194.56c0-107.452 87.108-194.56 194.56-194.56s194.56 87.108 194.56 194.56zM51.2 286.772c0 79.147 64.162 143.309 143.309 143.309s143.308-64.162 143.308-143.309c0-79.147-64.161-143.309-143.309-143.309s-143.309 64.162-143.309 143.309zM306.077 126.948l157.473-157.473 48.255 48.255-157.614 157.614c0 0-12.19-16.421-21.989-26.219s-26.124-22.177-26.124-22.177z" />
<glyph unicode="&#xe612;" d="M402.882 41.162c-19.549 8-68.012 18.053-80.243 25.85-14.981 9.536-10.164 61.725-10.164 61.725l10.164 9.001c0 0 2.572 23.59 6.993 32.149 9.889 19.186 20.327 51.438 20.327 51.438s10.164 7.49 10.164 20.575c0 13.085-10.164 20.575-10.164 20.575s3.812 36.428 3.812 61.725c0 53.166-32.961 82.3-92.216 82.3-59.245 0-102.481-24.762-102.481-82.3 0-25.308 7.938-61.725 7.938-61.725s-10.164-7.489-10.164-20.575c0-13.085 10.164-20.575 10.164-20.575s11.861-37.323 20.327-51.438c4.95-8.25 6.993-32.149 6.993-32.149l10.164-9.001c0 0 4.808-52.188-10.164-61.725-12.97-8.265-66.604-19.055-83.424-27.265-55.050 43.111-90.427 110.191-90.427 185.533 0 130.074 105.446 235.52 235.52 235.52s235.52-105.446 235.52-235.52c0-74.523-34.613-140.962-88.638-184.119zM256.005 481.28c-141.388 0-256.005-114.614-256.005-256s114.617-256 256.005-256c141.388 0 255.995 114.615 255.995 256s-114.606 256-255.995 256z" />
<glyph unicode="&#xe613;" d="M256.005 481.28c-141.388 0-256.005-114.614-256.005-256s114.617-256 256.005-256c141.388 0 255.995 114.615 255.995 256s-114.606 256-255.995 256zM258.587-16.111c-86.981 0-148.757 53.927-149.641 54.812 14.087 8.322 71.858 19.69 85.386 28.311 14.971 9.537 10.164 61.725 10.164 61.725l-10.164 9.002c0 0-2.043 23.898-6.993 32.149-8.466 14.115-20.327 51.438-20.327 51.438s-10.164 7.489-10.164 20.575c0 13.085 10.164 20.575 10.164 20.575s-7.938 36.418-7.938 61.725c0 57.538 43.237 82.3 102.481 82.3 59.255 0 92.216-29.134 92.216-82.3 0-25.297-3.812-61.725-3.812-61.725s10.164-7.49 10.164-20.575c0-13.085-10.164-20.575-10.164-20.575s-10.438-32.252-20.327-51.438c-4.421-8.559-6.993-32.149-6.993-32.149l-10.164-9.002c0 0-4.817-52.188 10.164-61.725 13.345-8.508 69.825-19.7 84.817-27.982 0.010-1.008-61.908-55.141-148.869-55.141z" />
<glyph unicode="&#xe614;" d="M235.52 245.76v235.52h51.2v-235.52h225.28v-51.2h-225.28v-225.28h-51.2v225.28h-235.52v51.2h235.52z" />
<glyph unicode="&#xe615;" d="M245.76 481.079v0.201c-136.636-5.387-245.76-117.875-245.76-255.871 0-70.76 28.672-134.81 75.025-181.161-46.37 46.339-75.025 110.339-75.025 181.032 0 137.956 109.122 250.424 245.76 255.799zM512 225.351c-0.003 13.036-0.981 25.845-2.865 38.357 1.885-12.487 2.865-25.271 2.865-38.287 0-0.024 0-0.047 0-0.071zM468.185 327.616v0c-36.683 75.92-112.913 129.156-201.945 132.965v-220.192l201.945 87.227zM388.558 30.578l-142.798 191.683v238.321c-125.323-5.361-225.28-108.659-225.28-235.302 0-130.074 105.446-235.52 235.52-235.52 49.158 0 94.798 15.060 132.558 40.818v0zM476.269 308.832l-204.572-88.281 133.121-177.825c52.914 43.188 86.701 108.925 86.701 182.554 0 29.423-5.395 57.585-15.25 83.552v0zM0 225.28c0 141.385 114.615 256 256 256s256-114.615 256-256c0-141.385-114.615-256-256-256s-256 114.615-256 256z" />
<glyph unicode="&#xe616;" d="M266.24 240.402l220.793 95.355c-39.829 83.277-123.286 141.686-220.793 145.523v-240.878zM245.76 222.26v259.019c-136.636-5.387-245.76-117.875-245.76-255.871 0-141.477 114.619-256.129 256-256.129 49.663 0 95.995 14.193 135.246 38.681l0.135-0.197 7.634 5.178c0.086 0.062 0.172 0.111 0.258 0.172l1.524 1.033-155.038 208.113zM512 225.422c0 32.261-6.024 63.094-16.915 91.53l-223.387-96.4 145.327-194.13c57.899 46.945 94.975 118.601 94.975 198.999v0z" />
<glyph unicode="&#xe617;" d="M430.080 194.56v61.44c0 91.402-46.101 167.035-133.376 181.596 0.082 0.901 0.256 1.782 0.256 2.724 0 22.62-18.34 40.96-40.96 40.96-22.6 0-40.96-18.34-40.96-40.96 0-0.942 0.185-1.822 0.256-2.724-87.275-14.562-133.376-90.194-133.376-181.596v-61.44l-61.44-163.84h471.040l-61.44 163.84zM235.52 440.32c0 11.305 9.196 20.48 20.48 20.48s20.48-9.175 20.48-20.48c0-0.185-0.082-0.338-0.082-0.522-3.399 0.205-6.717 0.522-10.158 0.522h-20.48c-3.441 0-6.758-0.317-10.158-0.522 0 0.185-0.082 0.338-0.082 0.522v0zM101.1 187.361l1.3 3.481v65.157c0 90.338 53.023 163.84 143.36 163.84h20.48c90.337 0 143.36-73.502 143.36-163.84v-65.157l1.3-3.481 51.056-136.161h-411.914l51.056 136.161zM205.845 10.24h100.321c-4.741-20.48-25.395-40.96-50.156-40.96s-45.435 20.48-50.166 40.96v0z" />
<glyph unicode="&#xe618;" d="M430.080 194.56v61.44c0 91.402-46.101 167.035-133.376 181.596 0.082 0.901 0.256 1.782 0.256 2.724 0 22.62-18.34 40.96-40.96 40.96-22.6 0-40.96-18.34-40.96-40.96 0-0.942 0.185-1.822 0.256-2.724-87.275-14.562-133.376-90.194-133.376-181.596v-61.44l-61.44-163.84h471.040l-61.44 163.84zM235.52 440.32c0 11.305 9.196 20.48 20.48 20.48s20.48-9.175 20.48-20.48c0-0.185-0.082-0.338-0.082-0.522-3.399 0.205-6.717 0.522-10.158 0.522h-20.48c-3.441 0-6.758-0.317-10.158-0.522 0 0.185-0.082 0.338-0.082 0.522v0zM205.845 10.24h100.321c-4.741-20.48-25.395-40.96-50.156-40.96s-45.435 20.48-50.166 40.96v0z" />
<glyph unicode="&#xe619;" d="M143.36 199.68l61.736-60.857 122.584 132.537 153.6-153.6v-35.84h-450.56v286.72h450.588l-0.028-220.16h20.508v240.64h-491.548v-327.68h491.548v87.040h-20.508l-153.888 153.025-122.592-132.545-61.44 60.562-112.64-111.761v-30.72l112.64 112.64zM112.64 302.080c0-19.797 16.043-35.84 35.84-35.84s35.84 16.043 35.84 35.84c0 19.797-16.043 35.84-35.84 35.84s-35.84-16.043-35.84-35.84zM163.84 302.080c0-8.486-6.874-15.36-15.36-15.36s-15.36 6.874-15.36 15.36c0 8.486 6.874 15.36 15.36 15.36s15.36-6.874 15.36-15.36z" />
<glyph unicode="&#xe61a;" d="M30.72 368.64h450.588l-0.028-220.16h20.508v240.64h-491.548v-327.68h491.548v87.040h-20.508l-153.888 153.025-122.592-132.545-61.44 60.561-112.64-111.762v250.88zM112.64 302.080c0-19.797 16.043-35.84 35.84-35.84s35.84 16.043 35.84 35.84c0 19.797-16.043 35.84-35.84 35.84s-35.84-16.043-35.84-35.84z" />
<glyph unicode="&#xe61b;" d="M153.6 375.802v44.038h-81.92v-128.421l-71.68-73.834 14.941-14.183 241.060 247.731 241.060-247.731 14.94 14.183-256 263.695-102.4-105.478zM133.12 354.707l-40.96-42.191v86.845h40.96v-44.654zM71.68-30.72h143.36v143.36h81.92v-143.36h143.36v240.64l-184.32 184.32-184.32-184.32v-240.64zM92.16-10.24v209.92l163.84 163.84 163.84-163.84v-209.92h-102.4v143.36h-122.88v-143.36h-102.4z" />
<glyph unicode="&#xe61c;" d="M153.6 375.802v44.038h-81.92v-128.421l-71.68-73.834 14.941-14.183 241.060 247.731 241.060-247.731 14.94 14.183-256 263.695-102.4-105.478zM133.12 354.707l-40.96-42.191v86.845h40.96v-44.654zM71.68-30.72v240.64l184.32 184.32 184.32-184.32v-240.64h-143.36v143.36h-81.92v-143.36h-143.36z" />
<glyph unicode="&#xe61d;" d="M256 189.44l-172.071 168.93-42.968-42.779 214.973-213.191 215.107 213.21-42.957 42.79-172.084-168.96z" />
<glyph unicode="&#xe61e;" d="M209.92 225.28l168.931 172.071-42.779 42.969-213.191-214.973 213.21-215.107 42.791 42.957-168.96 172.083z" />
<glyph unicode="&#xe61f;" d="M302.080 225.28l-168.93 172.071 42.779 42.969 213.191-214.973-213.209-215.107-42.791 42.957 168.96 172.083z" />
<glyph unicode="&#xe620;" d="M256 271.36l-172.071-168.931-42.968 42.779 214.973 213.191 215.107-213.21-42.957-42.79-172.084 168.96z" />
<glyph unicode="&#xe642;" d="M512 310.613c0 76.579-62.087 138.666-138.667 138.666-55.666 0-96-29.333-117.334-64-21.333 34.667-61.673 64-117.333 64-76.579 0-138.667-62.087-138.667-138.666 0-34.367 12.664-66.791 35.157-92.063l220.842-221.718 220.431 221.271c22.906 25.709 35.568 58.134 35.568 92.51zM256.001 27.947l-205.319 205.224c-18.649 20.977-29.349 48.373-29.349 77.442 0 64.797 52.537 117.334 117.334 117.334 47.095 0 89.031-28.038 107.556-70.514l9.779-22.422 9.776 22.422c18.522 42.481 60.455 70.514 107.555 70.514 64.797 0 117.334-52.536 117.334-117.334 0-29.079-10.699-56.475-29.76-77.889l-204.906-204.777z" />
<glyph unicode="&#xe643;" d="M512 310.613c0 76.579-62.087 138.666-138.667 138.666-55.666 0-96-29.333-117.334-64-21.333 34.667-61.673 64-117.333 64-76.579 0-138.667-62.087-138.667-138.666 0-34.367 12.664-66.791 35.157-92.063l220.842-221.718 220.431 221.271c22.906 25.709 35.568 58.134 35.568 92.51z" />
<glyph unicode="&#xe644;" d="M439.972 448.962c-0.389-0.123-39.711-13.599-101.909-13.599-31.683 0-61.87 6.43-91.034 12.636-29.512 6.288-60.027 12.8-92.324 12.8-64.43 0-86.262-13.824-88.555-15.401l-4.71-3.257v-452.382h20.48v199.433c8.683 3.399 31.355 9.442 72.766 9.442 30.003 0 58.061-5.98 87.778-12.308 30.29-6.471 61.604-13.127 95.58-13.127 66.212 0 107.418 14.233 109.159 14.827l3.358 1.413v263.68l-10.588-4.157zM338.043 195.010c-31.683 0-61.87 6.431-91.034 12.657-29.512 6.288-60.027 12.8-92.324 12.8-35.369 0-59.269-4.178-72.766-8.192v217.273c8.745 3.399 31.457 9.421 72.766 9.421 30.003 0 58.061-5.98 87.778-12.308 30.29-6.451 61.604-13.127 95.58-13.127 43.991 0 74.342 7.045 92.037 11.428v-217.6c-14.131-3.87-45.342-12.349-92.037-12.349z" />
<glyph unicode="&#xe645;" d="M439.972 448.962c-0.389-0.123-39.711-13.599-101.909-13.599-31.683 0-61.87 6.43-91.034 12.636-29.512 6.288-60.027 12.8-92.324 12.8-64.43 0-86.262-13.824-88.555-15.401l-4.71-3.257v-452.382h20.48v199.433c8.683 3.399 31.355 9.442 72.766 9.442 30.003 0 58.061-5.98 87.778-12.308 30.29-6.471 61.604-13.127 95.58-13.127 66.212 0 107.418 14.233 109.159 14.827l3.358 1.413v263.68l-10.588-4.157z" />
<glyph unicode="&#xe646;" d="M512 460.8l-194.56-266.24v-204.8h-122.88v204.8l-194.56 266.24h512zM215.040 204.8v-194.56h81.92v194.56l174.080 235.52h-430.080l174.080-235.52z" />
<glyph unicode="&#xe647;" d="M317.44-10.24v204.8l194.56 266.24h-512l194.56-266.24v-204.8h122.88z" />
<glyph unicode="&#xe648;" d="M409.6 317.44h30.72v-184.32h-30.72v184.32zM358.4 358.4h30.72v-266.24h-30.72v266.24zM122.88 358.4h30.72v-266.24h-30.72v266.24zM71.68 317.44h30.72v-184.32h-30.72v184.32zM460.8 235.52v102.4h-51.2v40.96h-71.68v-143.36h-163.84v143.36h-71.68v-40.96h-51.2v-102.4h-51.2v-20.48h51.2v-102.4h51.2v-40.96h71.68v143.36h163.84v-143.36h71.68v40.96h51.2v102.4h51.2v20.48h-51.2z" />
<glyph unicode="&#xe649;" d="M460.8 235.52v102.4h-51.2v40.96h-71.68v-143.36h-163.84v143.36h-71.68v-40.96h-51.2v-102.4h-51.2v-20.48h51.2v-102.4h51.2v-40.96h71.68v143.36h163.84v-143.36h71.68v40.96h51.2v102.4h51.2v20.48h-51.2z" />
<glyph unicode="&#xe64a;" d="M162.584 215.040h186.274c-2.219-35.44-10.014-71.476-23.412-107.52h-139.45c-13.399 36.044-21.194 72.080-23.412 107.52zM138.977 215.040c2.313-35.437 10.066-71.436 23.253-107.52h-110.107c0.903-1.646 1.798-3.228 2.682-4.741-20.113 32.962-32.353 71.254-34.107 112.262h118.278zM250.224-10.17c-23.292 32.036-41.959 64.593-56.020 97.234 39.655-0.005 83.208-0.009 123.030-0.013-14.063-32.641-32.731-65.198-56.024-97.234v0c-1.731-0.038-3.468-0.057-5.209-0.057-1.931 0-3.857 0.023-5.776 0.070zM246.251-10.042c-75.699 3.082-142.189 41.894-183.055 100.024 0.807-1.063 1.585-2.031 2.329-2.899 11.383-0.005 52.907-0.010 104.76-0.017 13.414-31.774 31.037-63.543 52.867-94.986 5.422-0.914 13.059-1.467 23.1-2.123zM161.922 235.52c-0.067 36.842 5.972 72.907 18.087 107.52h151.424c12.114-34.613 18.154-70.678 18.087-107.52h-187.597zM138.246 235.52h-117.547c1.755 41.008 13.995 79.299 34.107 112.262-0.884-1.514-1.779-3.096-2.682-4.742h103.247c-11.637-34.768-17.343-70.788-17.124-107.52zM250.261 460.731c1.907 0.046 3.821 0.069 5.739 0.069 1.728 0 3.45-0.019 5.17-0.055v0c26.904-30.346 47.688-62.986 62.317-97.234-43.563-0.004-92.179-0.010-135.538-0.014 14.629 34.249 35.41 66.889 62.312 97.236zM246.988 460.631c-3.036-0.163-7.744-0.436-12.418-0.792 4.11 0.37 8.25 0.636 12.418 0.792zM220.356 458.12c-0.434-0.128-0.732-0.259-0.868-0.392-24.292-29.846-43.133-61.417-56.529-94.235-48.41-0.006-86.594-0.012-97.436-0.016-0.744-0.868-1.522-1.836-2.329-2.899 36.136 51.4 92.305 87.697 157.161 97.543zM372.464 215.040h118.837c-1.89-44.179-15.95-85.206-38.914-119.813v0c2.74 4.225 5.816 9.14 7.558 12.293h-110.733c13.188 36.084 20.94 72.083 23.253 107.52v0zM264.413-10.092v0c10.425 0.678 18.317 1.235 23.878 2.173 21.825 31.436 39.445 63.2 52.859 94.967 50.611-0.005 91.817-0.008 105.553-0.008v0c-41.269-56.832-107.323-94.5-182.289-97.133zM373.196 235.52c0.219 36.732-5.487 72.752-17.124 107.52h103.873c-1.741 3.153-4.817 8.067-7.558 12.293v0c22.964-34.607 37.024-75.633 38.914-119.813h-118.106zM290.274 458.324c64.188-9.358 119.976-44.606 156.428-94.804v0c-13.067 0-50.995-0.003-98.228-0.007-13.394 32.811-32.233 64.375-56.521 94.216-0.209 0.204-0.8 0.404-1.679 0.596v0zM280.4 459.551v0c-6.253 0.545-13.396 0.948-16.977 1.134 5.712-0.177 11.374-0.557 16.977-1.134zM256-30.72c141.385 0 256 114.615 256 256s-114.615 256-256 256c-141.385 0-256-114.615-256-256s114.615-256 256-256z" />
<glyph unicode="&#xe64b;" d="M321.157 108.534c11.070 35.451 17.582 71.455 19.527 107.090h-169.257c1.946-35.645 8.469-71.639 19.528-107.090h130.201zM327.014 344.125h-141.906c-9.646-34.386-14.469-70.421-14.346-107.090h170.608c0.113 36.669-4.711 72.704-14.356 107.090v0zM198.226 87.111c13.957-38.031 33.219-75.151 57.825-110.183 24.606 35.031 43.878 72.151 57.825 110.183h-115.65zM320.286 365.548c-14.203 40.857-35.604 78.909-64.226 112.281-28.621-33.372-50.023-71.424-64.226-112.281h128.45zM470.958 365.548c-41.452 63.734-110.439 107.981-190.003 115.65 27.627-34.796 48.292-73.912 61.901-115.65h128.103zM162.949 344.125h-136.775c-16.015-32.133-25.273-68.373-26.174-107.090h149.453c-0.113 36.567 4.382 72.581 13.496 107.090v0zM231.23 481.28c-82.944-7.485-152.453-51.415-193.014-115.732h131.052c13.619 41.769 34.304 80.916 61.962 115.732v0zM343.531 108.534h140.267c16.62 32.348 26.624 68.639 28.201 107.090h-149.954c-1.853-35.645-7.998-71.618-18.514-107.090v0zM362.67 237.036h149.33c-1.598 38.482-11.735 74.782-28.549 107.090h-134.288c9.113-34.509 13.619-70.523 13.507-107.090v0zM150.077 215.624h-149.77c2.14-38.492 12.421-74.773 29.072-107.090h139.213c-10.526 35.471-16.661 71.445-18.514 107.090v0zM41.708 87.111c42.24-66.017 112.66-111.339 193.566-117.832-25.702 37.468-45.578 77.2-59.74 117.832h-133.827zM276.9-30.638c81.623 6.83 152.484 52.121 194.57 117.75h-134.892c-14.151-40.601-34.007-80.302-59.678-117.75v0z" />
<glyph unicode="&#xe64c;" d="M256 254.243l166.538 166.538 36.204-36.204-166.538-166.538 159.297-159.297-36.204-36.204-159.297 159.297-159.297-159.297-36.204 36.204 159.297 159.297-166.538 166.538 36.204 36.204 166.538-166.538z" />
<glyph unicode="&#xe64d;" d="M256 481.28v0c141.369 0 256-114.631 256-256s-114.632-256-256-256c-141.369 0-256 114.632-256 256s114.618 256 256 256zM256-10.24c130.074 0 235.52 105.446 235.52 235.52s-105.446 235.52-235.52 235.52c-130.074 0-235.52-105.446-235.52-235.52s105.446-235.52 235.52-235.52zM276.48 204.8h-143.36v20.48h122.88v163.84h20.48v-184.32z" />
<glyph unicode="&#xe64e;" d="M256 481.28c-141.381 0-256-114.631-256-256s114.632-256 256-256c141.369 0 256 114.632 256 256s-114.632 256-256 256v0zM276.48 204.8h-143.36v20.48h122.88v163.84h20.48v-184.32z" />
<glyph unicode="&#xe64f;" d="M256 481.28v0c141.393 0 256-114.607 256-256 0-141.381-114.607-256-256-256s-256 114.607-256 256c0 141.393 114.607 256 256 256zM256-10.24c130.074 0 235.52 105.446 235.52 235.52s-105.446 235.52-235.52 235.52c-130.074 0-235.52-105.446-235.52-235.52s105.446-235.52 235.52-235.52zM256 92.16c-11.297 0-20.48 9.158-20.48 20.48 0 11.297 9.183 20.467 20.48 20.467s20.48-9.17 20.48-20.467c0-11.322-9.171-20.48-20.48-20.48v0zM296.69 232.25c-27.413-27.401-26.712-26.774-28.065-58.17h-22.865c1.364 34.629 9.011 46.504 36.24 71.79 13.264 12.551 23.295 27.597 23.295 46.246 0 28.667-23.295 48.385-51.249 48.385-39.067 0-58.416-27.094-57.715-64.009h-22.582c0.369 50.892 29.392 83.014 81.367 83.014 39.767 0 72.737-24.733 72.737-66.296 0-26.516-12.896-43.738-31.175-60.936l0.012-0.024z" />
<glyph unicode="&#xe650;" d="M256 481.28c-141.393 0-256-114.607-256-256s114.607-256 256-256c141.393 0 256 114.619 256 256 0 141.393-114.607 256-256 256v0zM256 92.16c-11.297 0-20.48 9.158-20.48 20.48 0 11.297 9.183 20.467 20.48 20.467s20.48-9.17 20.48-20.467c0-11.322-9.171-20.48-20.48-20.48v0zM296.69 232.25c-27.413-27.401-26.712-26.774-28.065-58.17h-22.865c1.364 34.629 9.011 46.504 36.24 71.79 13.264 12.551 23.295 27.597 23.295 46.246 0 28.667-23.295 48.385-51.249 48.385-39.067 0-58.416-27.094-57.715-64.009h-22.582c0.369 50.892 29.392 83.014 81.367 83.014 39.767 0 72.737-24.733 72.737-66.296 0-26.516-12.896-43.738-31.175-60.936l0.012-0.024z" />
<glyph unicode="&#xe651;" d="M256 92.16c-11.297 0-20.48 9.158-20.48 20.48 0 11.297 9.183 20.467 20.48 20.467s20.48-9.17 20.48-20.467c0-11.322-9.171-20.48-20.48-20.48v0zM296.69 232.25c-27.413-27.401-26.712-26.774-28.065-58.17h-22.865c1.364 34.629 9.011 46.504 36.24 71.79 13.264 12.551 23.295 27.597 23.295 46.246 0 28.667-23.295 48.385-51.249 48.385-39.067 0-58.416-27.094-57.715-64.009h-22.582c0.369 50.892 29.392 83.014 81.367 83.014 39.767 0 72.737-24.733 72.737-66.296 0-26.516-12.896-43.738-31.175-60.936l0.012-0.024z" />
<glyph unicode="&#xe652;" d="M256 481.28v0c141.405 0 256-114.607 256-256s-114.594-256-256-256c-141.393 0-256 114.607-256 256s114.594 256 256 256zM256 460.8c-130.093 0-235.52-105.439-235.52-235.52s105.439-235.52 235.52-235.52c130.093 0 235.52 105.438 235.52 235.52s-105.427 235.52-235.52 235.52v0zM409.6 214.678h-143.676v-142.999h-20.525v142.999h-142.999v20.525h142.999v143.676h20.525v-143.676h143.676v-20.525z" />
<glyph unicode="&#xe653;" d="M256 481.28c-141.405 0-256-114.607-256-256s114.607-256 256-256c141.405 0 256 114.607 256 256s-114.594 256-256 256v0zM409.6 214.678h-143.676v-142.999h-20.525v142.999h-142.999v20.525h142.999v143.676h20.525v-143.676h143.676v-20.525z" />
<glyph unicode="&#xe654;" d="M409.6 214.678h-143.676v-142.999h-20.525v142.999h-142.999v20.525h142.999v143.676h20.525v-143.676h143.676v-20.525z" />
<glyph unicode="&#xe655;" d="M256 481.28v0c141.405 0 256-114.607 256-256s-114.594-256-256-256c-141.393 0-256 114.607-256 256s114.594 256 256 256zM256 460.8c-130.093 0-235.52-105.439-235.52-235.52s105.439-235.52 235.52-235.52c130.093 0 235.52 105.438 235.52 235.52s-105.427 235.52-235.52 235.52v0zM112.64 215.040v20.48h286.72v-20.48h-286.72z" />
<glyph unicode="&#xe656;" d="M256 481.28c-141.405 0-256-114.607-256-256s114.607-256 256-256c141.405 0 256 114.607 256 256s-114.594 256-256 256v0zM112.64 215.040v20.48h286.72v-20.48h-286.72z" />
<glyph unicode="&#xe657;" d="M112.64 215.040v20.48h286.72v-20.48h-286.72z" />
<glyph unicode="&#xe65c;" d="M163.51 35.806l345.782 345.782-36.204 36.204-309.248-310.272-125.588 125.952-36.204-36.204 161.462-161.462z" />
<glyph unicode="&#xe65d;" d="M0 481.28v-512h512v512h-512zM491.52-10.24h-471.040v348.16h471.040v-348.16zM20.48 358.4v102.4h471.040v-102.4h-471.040zM184.32 399.36h-30.72v30.72h30.72v-30.72zM348.16 399.36h-30.72v30.72h30.72v-30.72zM181.043 88.31v124.846h-45.22v16.712c5.898 0 11.632 0.44 17.203 1.351 5.571 0.901 10.608 2.581 15.125 5.038 4.495 2.458 8.315 5.806 11.428 10.076 3.113 4.26 5.243 9.667 6.39 16.22h15.975v-174.244h-20.9zM296.305 241.173l-9.339-50.135 0.491-0.491c3.769 4.26 8.642 7.414 14.633 9.462 5.97 2.048 11.909 3.072 17.808 3.072 7.7 0 14.991-1.229 21.883-3.687 6.882-2.457 12.861-6.185 17.94-11.182 5.069-4.997 9.093-11.223 12.042-18.678 2.949-7.465 4.423-16.19 4.423-26.173 0-7.373-1.27-14.541-3.81-21.504s-6.349-13.148-11.428-18.555c-5.079-5.406-11.418-9.707-19.036-12.902s-16.507-4.793-26.665-4.793c-7.526 0-14.623 1.106-21.248 3.318-6.635 2.212-12.503 5.406-17.582 9.584s-9.093 9.38-12.042 15.606c-2.949 6.226-4.505 13.271-4.67 21.135h20.889c0.327-4.423 1.433-8.56 3.318-12.411s4.423-7.209 7.618-10.076c3.195-2.867 6.963-5.079 11.305-6.635s9.134-2.335 14.377-2.335c4.905 0 9.615 0.86 14.131 2.581 4.495 1.721 8.438 4.301 11.796 7.741 3.349 3.44 6.021 7.741 7.977 12.902 1.966 5.161 2.949 11.182 2.949 18.063 0 5.735-0.942 11.018-2.816 15.851-1.894 4.834-4.546 9.011-7.987 12.534s-7.577 6.267-12.411 8.233c-4.844 1.966-10.199 2.949-16.098 2.949-6.882 0-12.995-1.515-18.309-4.546s-10.035-7.004-14.131-11.92l-17.94 0.983 16.22 90.439h86.016v-18.432h-70.308z" />
<glyph unicode="&#xe65e;" d="M0-30.72h512v368.64h-512v-368.64zM351.232 160.932c-1.894 4.833-4.546 9.011-7.987 12.534s-7.577 6.267-12.411 8.233c-4.844 1.966-10.199 2.949-16.098 2.949-6.882 0-12.995-1.515-18.309-4.547s-10.035-7.004-14.131-11.919l-17.94 0.983 16.22 90.439h86.016v-18.432h-70.287l-9.339-50.135 0.491-0.491c3.769 4.26 8.642 7.414 14.633 9.462 5.97 2.048 11.909 3.072 17.808 3.072 7.7 0 14.991-1.229 21.883-3.687 6.882-2.457 12.861-6.185 17.94-11.182 5.069-4.997 9.093-11.223 12.042-18.678 2.949-7.465 4.423-16.189 4.423-26.173 0-7.373-1.27-14.541-3.81-21.504s-6.349-13.148-11.428-18.555c-5.079-5.407-11.418-9.707-19.036-12.903s-16.507-4.793-26.665-4.793c-7.526 0-14.623 1.106-21.248 3.318-6.635 2.212-12.503 5.407-17.582 9.585s-9.093 9.38-12.042 15.606c-2.949 6.226-4.505 13.271-4.67 21.135h20.889c0.327-4.423 1.433-8.561 3.318-12.411s4.423-7.209 7.618-10.076c3.195-2.867 6.963-5.079 11.305-6.635s9.134-2.334 14.377-2.334c4.905 0 9.615 0.86 14.131 2.58 4.495 1.721 8.438 4.301 11.796 7.741 3.349 3.441 6.021 7.741 7.977 12.903 1.966 5.161 2.949 11.182 2.949 18.063-0.010 5.735-0.952 11.018-2.837 15.851v0zM153.026 231.219c5.571 0.901 10.608 2.581 15.125 5.038 4.495 2.458 8.315 5.806 11.428 10.076 3.113 4.26 5.243 9.666 6.39 16.22h15.975v-174.244h-20.889v124.846h-45.23v16.712c5.898 0 11.632 0.44 17.203 1.351zM0 481.28v-122.88h512v122.88h-512zM184.32 399.36h-30.72v30.72h30.72v-30.72zM348.16 399.36h-30.72v30.72h30.72v-30.72z" />
<glyph unicode="&#xe65f;" d="M0 481.28v-204.8h51.2v117.76l136.534-134.827 34.133 34.133-134.827 136.534h117.76v51.2h-204.8zM512-30.72v204.8h-51.2v-117.76l-136.534 134.827-34.133-34.134 134.827-136.534h-117.76v-51.2h204.8z" />
<glyph unicode="&#xe660;" d="M221.867 259.413v204.8h-51.2v-117.76l-136.534 134.827-34.133-34.133 134.827-136.534h-117.76v-51.2h204.8zM290.134 191.146v-204.8h51.2v117.76l136.534-134.827 34.133 34.134-134.827 136.534h117.76v51.2h-204.8z" />
</font>
</defs>
</svg>
